<svg xmlns="http://www.w3.org/2000/svg" xmlns:xlink="http://www.w3.org/1999/xlink" version="1.1" x="0px" y="0px"
     viewBox="0 0 100 125"
     fill="#013349"
     stroke-width="3"
     style="enable-background:new 0 0 100 100;" xml:space="preserve">
    <defs>
    <linearGradient id="Gradient1">
          <stop class="stop1" offset="0%" />
          <stop class="stop2" offset="50%" />
          <stop class="stop3" offset="100%" />
    </linearGradient>
    <linearGradient id="Gradient2" x1="0" x2="0" y1="0" y2="1">
        <stop offset="0%" style="stop-color:#012231;" />
        <stop offset="50%" style="stop-color:#013349;stop-opacity:1"  />
        <stop offset="100%" style="stop-color:rgba(26, 46, 109, 1);" />
    </linearGradient>
    <linearGradient id="Gradient3" x1="0" x2="0" y1="0" y2="1">
        <stop offset="0%" style="stop-color:rgb(255, 150, 0);" />
        <stop offset="100%" style="stop-color:rgb(255, 235, 0);" />
    </linearGradient>

    </defs>
    <path transform="translate(30,10) rotate(45)"  stroke="url(#Gradient2)" fill="url(#Gradient3)" d="M44.3,74.7c0.1-0.8,0.4-2.4,0.5-4c1.8-16.3,1.5-16.6-15.3-13.2c-4.8,0.9-9.6,1.9-14.4,2.7c-3.3,0.5-6.8,0.3-9.3-2  c-1.7-1.5-3-4-2.6-6.6c0.4-2.5,2.8-2.4,4.8-2.8c9.6-1.7,19.2-3.5,28.8-5.1c9.8-1.6,10.1-1.9,9.9-11.5c-0.2-8.6-0.5-17.1-0.5-25.7  c0-4.9,2.9-6.3,7.1-3.9c3.4,1.9,5.6,4.7,5.5,8.8c-0.1,6.1,1.3,12.1,0.9,18.3C59.2,40.9,59.6,41,71.4,40.8c4.8-0.1,9.6,0.2,14.4-1.7  c4.1-1.6,8-0.1,9.8,4.7c1.7,4.8,0.2,7.6-5,8.8c-6.5,1.5-13,0.1-19.5,0.2c-11.1,0.2-11.7,0.4-12.5,11.5c-0.6,9.3-2.6,18.6-1.5,28  c0.4,3.7-0.9,6.4-5.3,6.4c-3.7-0.1-7.2-0.1-8.5-4.9C41.6,87.4,44.7,81.6,44.3,74.7z"/>
    </svg>
